<svg xmlns="http://www.w3.org/2000/svg" width="34.317" height="30.444" viewBox="0 0 34.317 30.444">
    <defs>
        <style>
            .cls-1{fill:#e41d36}.cls-2{fill:#f9fff9}.cls-4{fill:none;stroke:#000;stroke-width:.5px;stroke-linecap:round;stroke-linejoin:round}
        </style>
    </defs>
    <g id="Milestone_logo" transform="translate(.658 .385)">
        <g id="Group_2581">
            <g id="Group_2588" transform="translate(4.53)">
                <path id="Path_6293" d="M37.952 51.35a30.549 30.549 0 0 1-3.334-16.7c.075-.054.1-.081.114-.08 2.583.243 4.7-.793 6.793-2.2a7.929 7.929 0 0 1 9.182.335 9.268 9.268 0 0 0 3.81 2c.853.14 1.723.17 2.665.256A30.506 30.506 0 0 1 53.3 51.35z" class="cls-1" transform="translate(-34.423 -31.057)"/>
                <path id="Path_6294" d="M55 52.425h3.07a29.488 29.488 0 0 0 3.561-16.564c-.84-.064-1.622-.1-2.388-.184A31.245 31.245 0 0 1 55 52.425z" class="cls-2" transform="translate(-39.193 -32.131)"/>
                <path id="Path_6301" fill="none" stroke="#000" stroke-linecap="square" stroke-miterlimit="10" stroke-width="0.5px" d="M37.977 51.258A29.741 29.741 0 0 1 34.5 34.822c.074-.055.1-.084.113-.082 2.587.2 4.691-.866 6.759-2.308a7.928 7.928 0 0 1 9.186.191 9.255 9.255 0 0 0 3.842 1.94c.854.127 1.724.143 2.668.215a29.729 29.729 0 0 1-3.372 16.285" transform="translate(-34.403 -31.057)"/>
                <g id="chicken_leg" transform="translate(5.072 4.27)">
                    <g id="Group_2583">
                        <path id="Path_6296" d="M42.011 49.657c0-.434-.5-.516-.5-.516a.6.6 0 0 1-.458-.806l.851-.549a6.226 6.226 0 0 0 1.3-1.078 3.663 3.663 0 0 0 .282-.421 4.521 4.521 0 0 0 .555-1.478l.548-2.925a8.331 8.331 0 0 1 2.3-4.358 3.674 3.674 0 0 1 4.852.015 3.623 3.623 0 0 1 1.051 4.708A8.387 8.387 0 0 1 49 45.416l-2.757 1.157a4.556 4.556 0 0 0-1.786 1.336 3.4 3.4 0 0 0-.7 1.5 1.43 1.43 0 0 1-.7.982l-.031.012c-.732.32-1.016-.437-1.015-.746z" class="cls-2" transform="translate(-41.012 -36.62)"/>
                        <path id="Path_6297" d="M42.235 49.657a.474.474 0 0 0-.26-.427l.135-.057.355.575c1.325.217.513-1.4 2.685-3.12l2.218-1.361A8.387 8.387 0 0 0 51.16 42.1a3.623 3.623 0 0 0-1.051-4.708 4.253 4.253 0 0 0-1.321-.717 4.02 4.02 0 0 1 3.177.866 3.623 3.623 0 0 1 1.051 4.708 8.388 8.388 0 0 1-3.793 3.166l-2.757 1.157a4.556 4.556 0 0 0-1.786 1.336 3.4 3.4 0 0 0-.7 1.5 1.43 1.43 0 0 1-.7.982l-.031.012c-.731.322-1.015-.436-1.014-.745z" class="cls-1" transform="translate(-41.236 -36.621)"/>
                        <path id="Path_6298" d="M46.754 49.453c-.931.448-2.111-1.085-2.111-1.085" class="cls-4" transform="translate(-41.856 -39.352)"/>
                        <path id="Path_6299" d="M43.673 50.395a1.43 1.43 0 0 0 .7-.982 3.4 3.4 0 0 1 .7-1.5 4.556 4.556 0 0 1 1.786-1.336l2.757-1.157a8.387 8.387 0 0 0 3.793-3.166 3.623 3.623 0 0 0-1.051-4.708 3.674 3.674 0 0 0-4.852-.015 8.331 8.331 0 0 0-2.3 4.358l-.548 2.925a4.521 4.521 0 0 1-.555 1.478 3.663 3.663 0 0 1-.282.421" class="cls-4" transform="translate(-41.63 -36.62)"/>
                    </g>
                    <path id="Path_6300" d="M43.023 53.791c-.729.316-1.012-.441-1.011-.751 0-.434-.5-.516-.5-.516a.6.6 0 0 1-.458-.806s.059-.324.851-.549" class="cls-4" transform="translate(-41.012 -40.004)"/>
                </g>
            </g>
            <g id="bottom_ribbon" transform="translate(0 20.1)">
                <g id="Group_2582">
                    <path id="Path_6295" fill="#fff" stroke="#000" stroke-linecap="round" stroke-miterlimit="10" stroke-width="0.5px" d="M61 66.439c-.629-.77-1.266-1.543-1.9-2.3.491-.51 1.009-1.045 1.531-1.576l.34-.346-.471-.1c-.823-.181-2.495-.462-2.495-.462v-3.039l-.219-.04q-2.777-.5-5.569-.78a89.174 89.174 0 0 0-15.582.12q-2.226.258-4.444.655l-.219.04V61.6c-.825.162-1.66.335-2.483.516l-.471.1.34.346c.522.531 1.04 1.067 1.531 1.576-.631.757-1.268 1.53-1.9 2.3l-.5.609.762-.178c1.392-.326 2.853-.617 4.34-.863l.449-.067v-.231c0-.417.008-.67.015-.914.006-.214.012-.436.014-.767a71.622 71.622 0 0 1 21.841.007c0 .327.008.547.014.76.007.244.015.5.015.914v.231l.445.066c1.49.247 2.952.538 4.344.864l.762.178z" transform="translate(-28.5 -57.5)"/>
                </g>
            </g>
            <g id="My_rewards" transform="translate(6.043 21.9)">
                <path id="Path_6302" d="M37.049 60.742l.658 1.45h.007l.335-1.548.675-.067.214 2.182-.448.045-.153-1.546h-.006l-.382 1.6-.369.037-.686-1.479h-.005l.15 1.53-.449.045-.214-2.181z" transform="translate(-36.374 -60.11)"/>
                <path id="Path_6303" d="M39.711 60.5l.539-.046.583.82.435-.906.535-.045-.7 1.414.072.839-.481.041-.071-.851z" transform="translate(-37.15 -60.05)"/>
                <path id="Path_6304" d="M45.01 60.126a.71.71 0 0 1 .267.032.61.61 0 0 1 .211.117.575.575 0 0 1 .14.184.607.607 0 0 1 .058.231.665.665 0 0 1-.061.34.51.51 0 0 1-.252.229v.006a.4.4 0 0 1 .153.066.416.416 0 0 1 .1.115.54.54 0 0 1 .063.147 1.233 1.233 0 0 1 .033.165c0 .035.008.076.014.122l.019.144a1.03 1.03 0 0 0 .032.137.327.327 0 0 0 .058.109l-.481.029a.819.819 0 0 1-.064-.246c-.012-.1-.027-.187-.045-.274a.434.434 0 0 0-.119-.245.358.358 0 0 0-.266-.064l-.482.029.052.855-.481.029-.129-2.183zm-.113 1a.371.371 0 0 0 .245-.089.312.312 0 0 0 .068-.243.3.3 0 0 0-.1-.227.377.377 0 0 0-.253-.057l-.527.031.038.616z" transform="translate(-38.108 -60.004)"/>
                <path id="Path_6305" d="M48.426 59.983l.012.405-1.157.035.015.47 1.061-.033.012.375-1.062.031.017.537 1.181-.035.012.405-1.662.05-.067-2.191z" transform="translate(-38.796 -59.971)"/>
                <path id="Path_6306" d="M50.98 62.2l-.342-1.5h-.006l-.394 1.484-.488-.009-.536-2.2.481.009.318 1.5h.006l.41-1.483.451.008.345 1.517h.005l.389-1.5.473.01-.632 2.18z" transform="translate(-39.36 -59.968)"/>
                <path id="Path_6307" d="M54.214 60.121l.721 2.226-.5-.022-.143-.5-.82-.036-.193.479-.485-.021.926-2.147zm-.033 1.345l-.239-.817h-.006l-.322.791z" transform="translate(-40.192 -59.998)"/>
                <path id="Path_6308" d="M57.107 60.261a.68.68 0 0 1 .261.063.6.6 0 0 1 .195.142.574.574 0 0 1 .118.2.632.632 0 0 1 .031.236.669.669 0 0 1-.1.33.516.516 0 0 1-.279.2v.006a.372.372 0 0 1 .143.084.409.409 0 0 1 .087.125.553.553 0 0 1 .046.155 1.522 1.522 0 0 1 .012.167v.268a1.031 1.031 0 0 0 .017.141.332.332 0 0 0 .044.114l-.481-.028a.842.842 0 0 1-.034-.251c0-.1 0-.189-.012-.278a.44.44 0 0 0-.088-.257.361.361 0 0 0-.256-.094l-.481-.029-.05.856-.48-.031.127-2.188zm-.23.98a.369.369 0 0 0 .252-.06.306.306 0 0 0 .1-.233.3.3 0 0 0-.069-.236.375.375 0 0 0-.244-.087l-.527-.031-.037.617z" transform="translate(-40.891 -60.02)"/>
                <path id="Path_6309" d="M59.788 60.431a1.15 1.15 0 0 1 .388.094.857.857 0 0 1 .3.224.921.921 0 0 1 .185.351 1.338 1.338 0 0 1 .042.48 1.515 1.515 0 0 1-.091.437.961.961 0 0 1-.21.336.873.873 0 0 1-.325.21 1.07 1.07 0 0 1-.444.054l-.942-.066.151-2.186zm-.157 1.78a.61.61 0 0 0 .2-.02.443.443 0 0 0 .183-.1.559.559 0 0 0 .137-.194.914.914 0 0 0 .066-.3 1.232 1.232 0 0 0-.011-.3.588.588 0 0 0-.091-.236.451.451 0 0 0-.184-.159.8.8 0 0 0-.295-.071L59.3 60.8l-.1 1.378z" transform="translate(-41.564 -60.061)"/>
                <path id="Path_6310" d="M62.01 62.25a.342.342 0 0 0 .1.133.448.448 0 0 0 .149.081.679.679 0 0 0 .181.037.927.927 0 0 0 .139 0 .544.544 0 0 0 .142-.031.3.3 0 0 0 .113-.077.206.206 0 0 0 .053-.133.192.192 0 0 0-.045-.148.431.431 0 0 0-.141-.1 1.489 1.489 0 0 0-.2-.08c-.077-.025-.154-.051-.232-.08a2.273 2.273 0 0 1-.233-.094.829.829 0 0 1-.2-.13.552.552 0 0 1-.134-.188.535.535 0 0 1-.038-.259.58.58 0 0 1 .094-.287.65.65 0 0 1 .2-.192.832.832 0 0 1 .272-.1 1.144 1.144 0 0 1 .3-.017 1.364 1.364 0 0 1 .326.064.842.842 0 0 1 .271.145.619.619 0 0 1 .177.235.664.664 0 0 1 .048.328l-.466-.036a.38.38 0 0 0-.029-.165.263.263 0 0 0-.085-.107.36.36 0 0 0-.129-.062.747.747 0 0 0-.163-.028.6.6 0 0 0-.117 0 .343.343 0 0 0-.109.035.277.277 0 0 0-.084.071.206.206 0 0 0-.04.114.184.184 0 0 0 .018.105.2.2 0 0 0 .09.081 1.131 1.131 0 0 0 .194.082c.082.029.191.067.326.112.039.012.1.031.165.058a.822.822 0 0 1 .209.119.652.652 0 0 1 .17.2.543.543 0 0 1 .055.307.681.681 0 0 1-.08.274.591.591 0 0 1-.19.21.838.838 0 0 1-.3.123 1.478 1.478 0 0 1-.744-.049.878.878 0 0 1-.289-.162.673.673 0 0 1-.187-.259.711.711 0 0 1-.048-.355l.465.037a.389.389 0 0 0 .026.188z" transform="translate(-42.221 -60.11)"/>
            </g>
        </g>
    </g>
</svg>
